<?xml version="1.0" encoding="utf-8"?>
<!-- Generator: Adobe Illustrator 28.1.0, SVG Export Plug-In . SVG Version: 6.00 Build 0)  -->
<svg version="1.1" id="Layer_1" xmlns="http://www.w3.org/2000/svg" xmlns:xlink="http://www.w3.org/1999/xlink" x="0px" y="0px"
	 viewBox="92 110 600 817" style="enable-background:new 0 0 790.94 1024.97;" xml:space="preserve">
<style type="text/css">
	.st0{fill:#18181b;}
	.st1{fill:#FFFFFF;}
	.st2{opacity:0.18;}
</style>
<path class="st0" d="M690.28,408.92c-8.45-164.46-133.96-298.65-298.64-298.65S94.8,244.26,93,408.92
	c-1.62,148.39,95.42,324.3,275.96,507.71c12.47,12.67,32.97,12.76,45.45,0.1C565.05,763.99,697.95,558.15,690.28,408.92z
	 M558.29,320.98c5.84-3.3,12.22-1.51,15.93,5.49c7.29,13.76,14.09,27.79,20.99,41.75c0.95,1.92,1.32,4.11,1.69,5.31
	c0.07,5.99-3.36,10.51-8.26,11.83c-4.6,1.24-9.77-0.73-12.13-5.08c-1.98-3.66-3.29-7.67-5.18-11.38
	c-5.28-10.33-10.61-20.64-16.1-30.85C551.37,330.88,552.42,324.3,558.29,320.98z M270.66,210.25
	c19.63-10.97,39.92-20.26,62.81-21.86c13.42-0.93,26.85-1.66,40.28-2.48c43.49-2.04,85.02,6.54,125.26,22.45
	c8.43,3.33,11.82,10.42,7.97,17.02c-2.96,5.08-8.35,6.42-15.34,4.2c-16.44-5.22-32.75-10.99-49.43-15.27
	c-19.63-5.04-39.83-6.54-60.1-5.59c-18.69,0.88-37.38,1.89-56.02,3.46c-13.5,1.14-25.25,7.79-37.21,13.57
	c-2.62,1.26-5.14,2.74-7.8,3.89c-6.16,2.65-12.11,0.66-14.93-4.85C263.42,219.44,264.96,213.44,270.66,210.25z M212.38,300.73
	c13.21-18.44,30.74-31.85,50.37-42.69c35.08-19.38,73.05-26.99,115.87-27.29c49.41,0.67,98.48,13.16,142.19,43.1
	c9.22,6.31,17.2,14.48,25.43,22.14c2.44,2.27,4.24,5.51,5.54,8.64c2.09,5.01-0.11,10.54-4.61,13.26c-4.19,2.53-10.05,1.94-13.49-2
	c-34.87-39.98-81.48-54.98-131.84-61.07c-40.08-4.85-79.21-0.08-116.28,16.76c-21.78,9.89-41.17,23.14-55.64,42.72
	c-4.35,5.89-11.09,6.89-16.18,2.95C208.61,313.28,208.02,306.82,212.38,300.73z M198.61,508.59c-0.45-5.78,3.49-10.91,9-11.9
	c5.31-0.96,10.79,2.31,12.48,7.45c3.56,10.84,7.14,21.67,10.67,32.52c0.44,1.37,0.64,2.81,0.76,3.35
	c-0.02,5.78-3.32,10.18-7.94,11.48c-4.78,1.34-10.45-0.4-12.49-5.35c-4.28-10.36-7.73-21.06-11.4-31.66
	C199.03,512.61,198.77,510.57,198.61,508.59z M301.66,695.07c-5.71,1.77-11.38-0.88-13.58-6.02c-2.37-5.54-0.49-11.83,5.28-14.23
	c18.94-7.87,27.58-24.14,33.83-41.86c6.41-18.16,9.54-36.85,4.61-56.18c-1.8-7.05,1.82-12.58,7.84-13.97
	c6.42-1.48,12.01,1.94,13.62,9.24c1.67,7.58,2.5,15.34,3.28,20.32c-1.58,34.38-9.99,63.33-31.46,87.38
	C318.71,686.87,310.9,692.2,301.66,695.07z M460.03,692.95c-5.03,4.16-11.58,3.46-16.33-2.26c-6.51-7.82-12.47-16.1-19.07-23.84
	c-6.33-7.43-13.62-13.96-23.93-14.75c-2.97-0.23-6.97,1.04-9.05,3.1c-6.97,6.88-9.43,16.25-11.63,25.42
	c-1.82,7.58-3.12,15.34-3.86,23.09c-0.6,6.28-2.61,11.18-8.37,14.16c-2.18,0-4.37,0-6.55,0c-6.55-3.37-8.38-8.84-7.57-15.87
	c2-17.22,4.7-34.24,12.77-49.88c11.11-21.55,26.27-27.35,48.67-18.56c14.81,5.82,26.67,15.29,35.33,28.77
	c3.23,5.03,7.1,9.66,10.6,14.53C465.27,682.77,464.85,688.96,460.03,692.95z M539.03,625.22c-3.37,4.02-9.01,5.05-13.84,2.46
	c-0.96-0.51-1.88-1.13-2.72-1.82c-29.64-24.36-61.38-46.15-88.78-73.24c-21.63-21.38-41.03-44.34-52.88-72.77
	c-2.02-4.84-3.86-9.88-4.87-15c-1.36-6.84,4.01-12.74,11.25-12.75c5.21,0.25,8.68,3.45,10.3,8.57c4.43,14.01,11.2,26.81,19.61,38.79
	c14.32,20.4,31.72,38.03,50.69,53.96c21.16,17.78,43.15,34.58,64.74,51.86c2.4,1.92,4.78,3.98,6.68,6.37
	C542.5,615.77,542.25,621.39,539.03,625.22z M563.48,591.9c-4.2,5.06-11.14,5.51-16.99,0.47c-26.17-22.54-52.74-44.66-78.12-68.07
	c-18.33-16.9-34.65-35.87-45.56-58.74c-1.95-4.09-3.27-8.48-4.93-12.7c-7.15-18.17-25.01-26.97-42.17-20.8
	c-17.63,6.33-26.03,24.34-20.06,43.1c7.91,24.85,21.85,46.25,38.26,66.17c24.06,29.19,52.12,54.27,81.12,78.35
	c9.79,8.13,19.8,16.01,29.68,24.04c4.33,3.52,7.44,7.65,5.55,13.65c-2.5,7.92-10.95,10.3-18.08,4.78
	c-9.92-7.68-19.67-15.6-29.32-23.62c-30.38-25.26-59.92-51.44-85.16-82.01c-18.64-22.57-34.5-46.83-43.29-75.13
	c-10.96-35.29,16.74-72.03,58.82-70.92c18.24,1.37,36.34,11.78,44.89,34c10.2,26.53,27.99,47.21,48.14,65.92
	c23.43,21.76,48.15,42.13,72.31,63.11c0.69,0.6,1.44,1.11,2.13,1.71C566.73,580.35,567.78,586.71,563.48,591.9z M583.77,547.74
	c-3.51,4.47-9.71,5.69-14.68,2.39c-3.92-2.61-7.56-5.69-11.12-8.79c-24.37-21.29-48.99-42.31-72.89-64.12
	c-11.89-10.85-20.45-24.17-25.78-39.85c-12.09-35.58-48.77-56.73-85.63-50.41c-35.7,6.12-63.59,39.28-63.68,76.14
	c-0.02,6.67,0.78,13.46,2.12,20.01c5.39,26.4,10.67,52.82,10.51,79.89c-0.13,21.22-3.39,41.79-17.47,58.93
	c-12.77,15.54-30.11,23.71-48.92,29.11c-5.48,1.57-11.04-2-12.68-6.99c-1.89-5.76,0.56-11.4,6.34-13.96
	c3.82-1.69,7.79-3.03,11.72-4.45c25.81-9.35,37.27-28.65,38.51-55.17c1.21-25.88-3.17-51.15-8.75-76.21
	c-5.07-22.75-5.53-45.05,3.2-67.03c15.3-38.51,50.73-62.91,92.16-63.47c40.36-0.55,79.29,25.6,92.81,64.01
	c5.3,15.06,13.71,27.4,25.13,37.61c24.53,21.94,49.71,43.14,74.62,64.65c1.24,1.07,2.57,2.05,3.67,3.25
	C586.86,537.56,587.15,543.43,583.77,547.74z M596.46,485.62c-0.86,3.48-3.38,7.26-6.28,9.37c-3.86,2.81-8.47,1.26-12.12-1.66
	c-7.67-6.13-15.3-12.33-22.82-18.65c-15.31-12.88-30.69-25.69-45.7-38.91c-3.24-2.85-5.96-6.98-7.42-11.05
	c-19.01-53.11-67.8-85.68-124.31-82.65c-53.98,2.89-102.09,46.32-110.75,99.61c-2.81,17.33-2.47,34.39,1.83,51.4
	c3.75,14.84,6.7,29.74,6.2,45.24c-1.05,32.11-20.99,59.5-51.32,69.7c-8.25,2.77-15.08-0.77-16.15-8.47
	c-0.79-5.65,1.88-9.36,6.85-11.74c5.07-2.42,10.4-4.47,15.08-7.52c17.84-11.61,24.25-29.16,22.99-49.39
	c-0.74-11.88-3.46-23.72-6.14-35.38c-15.8-68.76,20.85-139.46,86.45-165.79c7.72-3.1,15.91-5.25,24.06-7
	c8.14-1.75,16.51-2.45,24.78-3.61c59.3-2.11,117.35,35.68,138.52,91.01c2.5,6.54,6.02,11.63,11.43,16.02
	c19.79,16.03,39.31,32.39,58.96,48.59C594.1,477.61,597.6,481.01,596.46,485.62z M596.1,434.44c-2.76,6.17-8.78,8-16.17,5.11
	c-14.03-5.49-23.75-15.99-31.92-27.98c-11.66-17.14-22.48-34.85-34.29-51.88c-13.24-19.08-29.84-34.71-50.64-45.53
	c-25.91-13.48-53.78-17.66-82.52-16.47c-49.22,2.04-89.93,22.33-121.54,59.89c-23.42,27.83-35.94,60.37-37.79,96.85
	c-0.17,3.45-0.33,6.92-0.86,10.32c-0.91,5.84-5.84,9.83-11.42,9.54c-5.58-0.29-10.04-4.76-10.4-10.73
	c-0.21-3.44-0.04-6.9-0.04-10.36c4.8-61.34,32.01-110.1,82.28-145.36c28.59-20.05,60.83-30.63,95.9-32.29
	c21.21-1.01,42.16,0.54,62.76,5.72c38.77,9.76,68.92,32.07,91.73,64.42c12.57,17.83,24.14,36.36,36.29,54.48
	c5.55,8.27,12.41,15.07,21.75,19.27C596.27,422.61,598.7,428.63,596.1,434.44z"/>
<g class="st2">
	<path class="st1" d="M361.24,717.87c-6.55-3.37-8.38-8.84-7.57-15.87c2-17.22,4.7-34.24,12.77-49.88
		c11.11-21.55,26.27-27.35,48.67-18.56c14.81,5.82,26.67,15.29,35.33,28.77c3.23,5.03,7.1,9.66,10.6,14.53
		c4.24,5.9,3.82,12.08-1,16.07c-5.03,4.16-11.58,3.46-16.33-2.26c-6.51-7.82-12.47-16.1-19.07-23.84
		c-6.33-7.43-13.62-13.96-23.93-14.75c-2.97-0.23-6.97,1.04-9.05,3.1c-6.97,6.88-9.43,16.25-11.63,25.42
		c-1.82,7.58-3.12,15.34-3.86,23.09c-0.6,6.28-2.61,11.18-8.37,14.16C365.6,717.87,363.42,717.87,361.24,717.87z"/>
	<path class="st1" d="M381.68,319.11c59.3-2.11,117.35,35.68,138.52,91.01c2.5,6.54,6.02,11.63,11.43,16.02
		c19.79,16.03,39.31,32.39,58.96,48.59c3.5,2.89,7.01,6.28,5.86,10.89c-0.86,3.48-3.38,7.26-6.28,9.37
		c-3.86,2.8-8.47,1.26-12.12-1.66c-7.67-6.13-15.3-12.33-22.82-18.65c-15.31-12.88-30.69-25.69-45.7-38.91
		c-3.24-2.85-5.96-6.98-7.42-11.05c-19.01-53.11-67.8-85.68-124.31-82.65c-53.98,2.89-102.09,46.32-110.75,99.61
		c-2.81,17.33-2.47,34.39,1.83,51.4c3.75,14.84,6.7,29.74,6.2,45.24c-1.05,32.11-20.99,59.5-51.32,69.7
		c-8.25,2.77-15.08-0.77-16.15-8.47c-0.79-5.65,1.88-9.36,6.85-11.74c5.07-2.42,10.4-4.47,15.08-7.52
		c17.84-11.61,24.25-29.16,22.99-49.39c-0.74-11.88-3.46-23.72-6.14-35.38c-15.8-68.76,20.85-139.46,86.45-165.79
		c7.72-3.1,15.91-5.25,24.06-7C365.04,320.97,373.41,320.27,381.68,319.11z"/>
	<path class="st1" d="M386.73,363.77c40.36-0.55,79.29,25.6,92.81,64.01c5.3,15.06,13.71,27.4,25.13,37.61
		c24.53,21.94,49.71,43.14,74.62,64.65c1.24,1.07,2.57,2.05,3.66,3.25c3.9,4.27,4.19,10.14,0.81,14.45
		c-3.51,4.47-9.71,5.69-14.68,2.39c-3.92-2.61-7.56-5.69-11.12-8.79c-24.37-21.29-48.99-42.31-72.89-64.12
		c-11.89-10.85-20.45-24.17-25.78-39.85c-12.09-35.58-48.77-56.73-85.63-50.41c-35.7,6.12-63.59,39.28-63.68,76.14
		c-0.02,6.67,0.78,13.46,2.12,20.01c5.39,26.4,10.67,52.82,10.51,79.89c-0.13,21.22-3.39,41.79-17.47,58.93
		c-12.77,15.54-30.11,23.71-48.92,29.11c-5.48,1.57-11.04-2-12.68-6.99c-1.89-5.76,0.56-11.4,6.34-13.96
		c3.82-1.69,7.79-3.03,11.72-4.45c25.81-9.35,37.27-28.65,38.51-55.17c1.21-25.88-3.17-51.15-8.75-76.21
		c-5.07-22.75-5.53-45.05,3.2-67.03C309.87,388.74,345.3,364.34,386.73,363.77z"/>
	<path class="st1" d="M393.23,410.46c18.24,1.37,36.34,11.78,44.89,34c10.2,26.53,27.99,47.21,48.14,65.92
		c23.43,21.76,48.15,42.13,72.31,63.11c0.69,0.6,1.44,1.11,2.13,1.71c6.03,5.16,7.08,11.51,2.78,16.7
		c-4.2,5.06-11.14,5.51-16.99,0.47c-26.17-22.54-52.74-44.66-78.12-68.07c-18.33-16.9-34.65-35.87-45.56-58.74
		c-1.95-4.09-3.27-8.48-4.93-12.7c-7.15-18.17-25.01-26.97-42.17-20.8c-17.63,6.33-26.03,24.34-20.06,43.1
		c7.91,24.85,21.85,46.25,38.26,66.17c24.06,29.19,52.12,54.27,81.12,78.35c9.79,8.13,19.8,16.01,29.68,24.04
		c4.33,3.52,7.44,7.65,5.55,13.65c-2.5,7.92-10.95,10.3-18.08,4.78c-9.92-7.68-19.67-15.6-29.32-23.62
		c-30.38-25.26-59.92-51.44-85.16-82.01c-18.64-22.57-34.5-46.83-43.29-75.13C323.45,446.1,351.15,409.35,393.23,410.46z"/>
	<path class="st1" d="M198.53,453.21c4.8-61.34,32.01-110.1,82.28-145.36c28.59-20.05,60.83-30.63,95.9-32.29
		c21.21-1.01,42.16,0.54,62.76,5.72c38.77,9.76,68.92,32.07,91.73,64.42c12.57,17.83,24.14,36.36,36.29,54.48
		c5.55,8.27,12.41,15.07,21.75,19.27c7.04,3.16,9.46,9.18,6.87,14.99c-2.76,6.17-8.78,8-16.17,5.11
		c-14.03-5.49-23.75-15.99-31.92-27.98c-11.66-17.14-22.48-34.85-34.29-51.88c-13.24-19.08-29.84-34.71-50.64-45.53
		c-25.91-13.48-53.78-17.66-82.52-16.47c-49.22,2.04-89.93,22.33-121.54,59.89c-23.42,27.83-35.94,60.37-37.79,96.85
		c-0.17,3.45-0.33,6.92-0.86,10.32c-0.91,5.84-5.84,9.83-11.42,9.54c-5.58-0.29-10.04-4.76-10.4-10.73
		C198.36,460.12,198.53,456.66,198.53,453.21z"/>
	<path class="st1" d="M378.62,230.75c49.41,0.67,98.48,13.16,142.19,43.1c9.22,6.31,17.2,14.48,25.43,22.14
		c2.44,2.27,4.24,5.51,5.54,8.64c2.09,5.01-0.11,10.54-4.61,13.26c-4.19,2.53-10.05,1.94-13.49-2
		c-34.87-39.98-81.48-54.98-131.84-61.07c-40.08-4.85-79.21-0.08-116.28,16.76c-21.78,9.89-41.17,23.14-55.64,42.72
		c-4.35,5.89-11.09,6.89-16.18,2.95c-5.12-3.96-5.71-10.42-1.35-16.51c13.21-18.44,30.74-31.85,50.37-42.69
		C297.83,238.66,335.8,231.05,378.62,230.75z"/>
	<path class="st1" d="M373.76,185.92c43.5-2.04,85.02,6.54,125.26,22.45c8.43,3.33,11.82,10.42,7.97,17.02
		c-2.96,5.08-8.35,6.42-15.34,4.2c-16.44-5.22-32.75-10.99-49.43-15.27c-19.63-5.04-39.83-6.54-60.1-5.59
		c-18.69,0.88-37.38,1.89-56.02,3.46c-13.5,1.14-25.25,7.79-37.21,13.57c-2.62,1.26-5.14,2.74-7.8,3.89
		c-6.16,2.65-12.11,0.66-14.93-4.85c-2.75-5.35-1.21-11.35,4.5-14.54c19.63-10.97,39.92-20.26,62.81-21.86
		C346.9,187.46,360.33,186.73,373.76,185.92z"/>
	<path class="st1" d="M387.19,452.1c5.21,0.25,8.68,3.45,10.3,8.57c4.43,14.01,11.2,26.81,19.61,38.79
		c14.33,20.4,31.72,38.03,50.69,53.96c21.16,17.78,43.15,34.58,64.74,51.86c2.4,1.92,4.78,3.98,6.68,6.37
		c3.3,4.13,3.05,9.74-0.17,13.58c-3.37,4.02-9.01,5.05-13.84,2.46c-0.96-0.51-1.88-1.13-2.72-1.82
		c-29.64-24.36-61.38-46.15-88.78-73.24c-21.63-21.38-41.03-44.34-52.88-72.77c-2.02-4.84-3.86-9.88-4.87-15
		C374.58,458,379.95,452.11,387.19,452.1z"/>
	<path class="st1" d="M356.55,592.35c-1.58,34.38-9.99,63.33-31.46,87.38c-6.37,7.14-14.18,12.47-23.43,15.34
		c-5.71,1.77-11.38-0.88-13.58-6.02c-2.37-5.54-0.49-11.83,5.28-14.23c18.94-7.87,27.58-24.14,33.83-41.86
		c6.41-18.16,9.54-36.85,4.61-56.18c-1.8-7.05,1.82-12.58,7.84-13.97c6.42-1.48,12.01,1.94,13.62,9.24
		C354.93,579.61,355.77,587.37,356.55,592.35z"/>
	<path class="st1" d="M596.9,373.53c0.07,5.99-3.36,10.51-8.26,11.83c-4.6,1.24-9.77-0.73-12.13-5.08
		c-1.98-3.66-3.29-7.67-5.18-11.38c-5.28-10.33-10.61-20.64-16.1-30.85c-3.86-7.17-2.81-13.75,3.06-17.07
		c5.84-3.3,12.22-1.51,15.93,5.49c7.29,13.76,14.09,27.79,20.99,41.75C596.16,370.14,596.53,372.34,596.9,373.53z"/>
	<path class="st1" d="M231.51,540.01c-0.02,5.78-3.32,10.18-7.94,11.48c-4.78,1.34-10.45-0.4-12.49-5.35
		c-4.28-10.36-7.73-21.06-11.4-31.66c-0.65-1.86-0.91-3.9-1.06-5.88c-0.45-5.78,3.49-10.91,9-11.9c5.31-0.96,10.79,2.31,12.48,7.45
		c3.56,10.84,7.14,21.67,10.67,32.52C231.2,538.03,231.39,539.47,231.51,540.01z"/>
</g>
</svg>
